<?xml version="1.0" encoding="UTF-8" standalone="no"?>
<!DOCTYPE svg PUBLIC "-//W3C//DTD SVG 1.1//EN" "http://www.w3.org/Graphics/SVG/1.1/DTD/svg11.dtd">
<svg width="100%" height="100%" viewBox="0 0 1000 1000" version="1.1" xmlns="http://www.w3.org/2000/svg" xmlns:xlink="http://www.w3.org/1999/xlink" xml:space="preserve" xmlns:serif="http://www.serif.com/" style="fill-rule:evenodd;clip-rule:evenodd;stroke-linecap:round;stroke-linejoin:round;stroke-miterlimit:1.5;">
    <g transform="matrix(1.202091,0,0,0.982798,-105.109011,29.174149)">
        <path d="M275.76,661C357.172,881.72 639.908,905.037 731,661" style="fill:none;stroke:rgb(24,103,192);stroke-width:45.54px;"/>
    </g>
    <g transform="matrix(1,0,0,1,-17.5,-2.196695)">
        <g transform="matrix(1.08,0,0,1.08,-35.04,-22.04)">
            <path d="M338,128.278C370.962,128.278 397.722,155.038 397.722,188C397.722,220.962 370.962,247.722 338,247.722C305.038,247.722 278.278,220.962 278.278,188C278.278,155.038 305.038,128.278 338,128.278ZM338,163C324.202,163 313,174.202 313,188C313,201.798 324.202,213 338,213C351.798,213 363,201.798 363,188C363,174.202 351.798,163 338,163Z" style="fill:rgb(24,103,192);"/>
        </g>
        <g transform="matrix(1.08,0,0,1.08,294.96,7.96)">
            <path d="M338,128.278C370.962,128.278 397.722,155.038 397.722,188C397.722,220.962 370.962,247.722 338,247.722C305.038,247.722 278.278,220.962 278.278,188C278.278,155.038 305.038,128.278 338,128.278ZM338,163C324.202,163 313,174.202 313,188C313,201.798 324.202,213 338,213C351.798,213 363,201.798 363,188C363,174.202 351.798,163 338,163Z" style="fill:rgb(24,103,192);"/>
        </g>
        <path d="M370,220L383,228L383,341L410,341L410,215L383,197L370,220Z" style="fill:rgb(24,103,192);"/>
        <path d="M362.745,215.9L375.745,192.9C376.885,190.883 378.813,189.432 381.066,188.894C383.32,188.357 385.695,188.781 387.623,190.066L414.623,208.066C416.941,209.612 418.333,212.214 418.333,215L418.333,341C418.333,345.602 414.602,349.333 410,349.333L383,349.333C378.398,349.333 374.667,345.602 374.667,341L374.667,232.657L365.633,227.097C361.816,224.748 360.54,219.801 362.745,215.9ZM370,220L383,228L383,341L410,341L410,215L383,197L370,220Z" style="fill:rgb(24,103,192);"/>
        <g transform="matrix(1,0,0,1.060976,0,-15.792683)">
            <path d="M633,259L619,341L648,341L660,263L633,259Z" style="fill:rgb(24,103,192);"/>
            <path d="M634.294,251.241L661.294,255.241C665.802,255.909 668.902,259.87 668.247,264.127L656.247,342.127C655.653,345.989 652.14,348.854 648,348.854L619,348.854C616.559,348.854 614.24,347.845 612.657,346.094C611.073,344.342 610.385,342.024 610.773,339.752L624.773,257.752C625.502,253.48 629.759,250.569 634.294,251.241ZM633,259L619,341L648,341L660,263L633,259Z" style="fill:rgb(24,103,192);"/>
        </g>
        <g transform="matrix(11.363636,0,0,4.807692,-251.727273,-1203.307692)">
            <path d="M58.742,318.87L68.268,331.87C69.346,333.34 70.01,336.059 70.01,339L70.01,365C70.01,367.941 69.346,370.66 68.268,372.13L58.742,385.13C57.664,386.601 56.336,386.601 55.258,385.13L45.732,372.13C44.654,370.66 43.99,367.941 43.99,365L43.99,339C43.99,336.059 44.654,333.34 45.732,331.87L55.258,318.87C56.336,317.399 57.664,317.399 58.742,318.87ZM57,326L47.474,339L47.474,365L57,378L66.526,365L66.526,339L57,326Z" style="fill:rgb(24,103,192);"/>
        </g>
        <g transform="matrix(11.363636,0,0,4.807692,-8.727273,-1203.307692)">
            <path d="M58.742,318.87L68.268,331.87C69.346,333.34 70.01,336.059 70.01,339L70.01,365C70.01,367.941 69.346,370.66 68.268,372.13L58.742,385.13C57.664,386.601 56.336,386.601 55.258,385.13L45.732,372.13C44.654,370.66 43.99,367.941 43.99,365L43.99,339C43.99,336.059 44.654,333.34 45.732,331.87L55.258,318.87C56.336,317.399 57.664,317.399 58.742,318.87ZM57,326L47.474,339L47.474,365L57,378L66.526,365L66.526,339L57,326Z" style="fill:rgb(24,103,192);"/>
        </g>
    </g>
    <g transform="matrix(1,0,0,1,-52.5,-40.5)">
        <path d="M552.5,53.417C821.329,53.417 1039.583,271.671 1039.583,540.5C1039.583,809.329 821.329,1027.583 552.5,1027.583C283.671,1027.583 65.417,809.329 65.417,540.5C65.417,271.671 283.671,53.417 552.5,53.417ZM552.5,93C305.518,93 105,293.518 105,540.5C105,787.482 305.518,988 552.5,988C799.482,988 1000,787.482 1000,540.5C1000,293.518 799.482,93 552.5,93Z" style="fill:rgb(24,103,192);"/>
    </g>
</svg>
